<mxfile host="Electron" agent="Mozilla/5.0 (Windows NT 10.0; Win64; x64) AppleWebKit/537.36 (KHTML, like Gecko) draw.io/27.0.9 Chrome/134.0.6998.205 Electron/35.4.0 Safari/537.36" version="27.0.9">
  <diagram name="Page-1" id="07E-awZtlmClpIul0Xen">
    <mxGraphModel dx="1869" dy="626" grid="1" gridSize="10" guides="1" tooltips="1" connect="1" arrows="1" fold="1" page="1" pageScale="1" pageWidth="827" pageHeight="1169" math="0" shadow="0">
      <root>
        <mxCell id="0" />
        <mxCell id="1" parent="0" />
        <mxCell id="B8bVB5oPN09Q1FHyn--5-1" value="airlines.csv" style="rounded=1;whiteSpace=wrap;html=1;" parent="1" vertex="1">
          <mxGeometry x="-20" y="112.5" width="120" height="30" as="geometry" />
        </mxCell>
        <mxCell id="B8bVB5oPN09Q1FHyn--5-2" value="&lt;b&gt;Data Source&lt;/b&gt;" style="text;html=1;align=center;verticalAlign=middle;whiteSpace=wrap;rounded=0;" parent="1" vertex="1">
          <mxGeometry x="130" y="155" width="60" height="30" as="geometry" />
        </mxCell>
        <mxCell id="B8bVB5oPN09Q1FHyn--5-3" value="" style="endArrow=classic;html=1;rounded=0;" parent="1" target="B8bVB5oPN09Q1FHyn--5-4" edge="1">
          <mxGeometry width="50" height="50" relative="1" as="geometry">
            <mxPoint x="190" y="169.5" as="sourcePoint" />
            <mxPoint x="230" y="170" as="targetPoint" />
          </mxGeometry>
        </mxCell>
        <mxCell id="B8bVB5oPN09Q1FHyn--5-4" value="Extract" style="rounded=1;whiteSpace=wrap;html=1;" parent="1" vertex="1">
          <mxGeometry x="240" y="140" width="120" height="60" as="geometry" />
        </mxCell>
        <mxCell id="B8bVB5oPN09Q1FHyn--5-5" value="" style="endArrow=classic;html=1;rounded=0;" parent="1" source="B8bVB5oPN09Q1FHyn--5-4" target="B8bVB5oPN09Q1FHyn--5-6" edge="1">
          <mxGeometry width="50" height="50" relative="1" as="geometry">
            <mxPoint x="390" y="350" as="sourcePoint" />
            <mxPoint x="440" y="300" as="targetPoint" />
          </mxGeometry>
        </mxCell>
        <mxCell id="B8bVB5oPN09Q1FHyn--5-6" value="Transform" style="rounded=1;whiteSpace=wrap;html=1;" parent="1" vertex="1">
          <mxGeometry x="410" y="140" width="120" height="60" as="geometry" />
        </mxCell>
        <mxCell id="B8bVB5oPN09Q1FHyn--5-7" value="Data&amp;nbsp;&lt;div&gt;Warehouse&lt;/div&gt;" style="rounded=1;whiteSpace=wrap;html=1;" parent="1" vertex="1">
          <mxGeometry x="610" y="140" width="120" height="60" as="geometry" />
        </mxCell>
        <mxCell id="B8bVB5oPN09Q1FHyn--5-8" value="" style="endArrow=classic;html=1;rounded=0;" parent="1" source="B8bVB5oPN09Q1FHyn--5-6" target="B8bVB5oPN09Q1FHyn--5-7" edge="1">
          <mxGeometry width="50" height="50" relative="1" as="geometry">
            <mxPoint x="510" y="220" as="sourcePoint" />
            <mxPoint x="560" y="170" as="targetPoint" />
          </mxGeometry>
        </mxCell>
        <mxCell id="B8bVB5oPN09Q1FHyn--5-9" value="Analyze + Visualize" style="rounded=1;whiteSpace=wrap;html=1;" parent="1" vertex="1">
          <mxGeometry x="790" y="140" width="120" height="60" as="geometry" />
        </mxCell>
        <mxCell id="B8bVB5oPN09Q1FHyn--5-10" value="" style="endArrow=classic;html=1;rounded=0;" parent="1" source="B8bVB5oPN09Q1FHyn--5-7" target="B8bVB5oPN09Q1FHyn--5-9" edge="1">
          <mxGeometry width="50" height="50" relative="1" as="geometry">
            <mxPoint x="770" y="170" as="sourcePoint" />
            <mxPoint x="820" y="120" as="targetPoint" />
          </mxGeometry>
        </mxCell>
        <mxCell id="B8bVB5oPN09Q1FHyn--5-11" value="Cleaned&lt;div&gt;Data&lt;/div&gt;" style="text;html=1;align=center;verticalAlign=middle;resizable=0;points=[];autosize=1;strokeColor=none;fillColor=none;" parent="1" vertex="1">
          <mxGeometry x="530" y="130" width="70" height="40" as="geometry" />
        </mxCell>
        <mxCell id="B8bVB5oPN09Q1FHyn--5-12" value="airports.csv" style="rounded=1;whiteSpace=wrap;html=1;" parent="1" vertex="1">
          <mxGeometry x="-20" y="157.5" width="120" height="30" as="geometry" />
        </mxCell>
        <mxCell id="B8bVB5oPN09Q1FHyn--5-13" value="flights.csv" style="rounded=1;whiteSpace=wrap;html=1;" parent="1" vertex="1">
          <mxGeometry x="-20" y="197.5" width="120" height="30" as="geometry" />
        </mxCell>
        <mxCell id="B8bVB5oPN09Q1FHyn--5-14" value="" style="verticalLabelPosition=bottom;shadow=0;dashed=0;align=center;html=1;verticalAlign=top;strokeWidth=1;shape=mxgraph.mockup.markup.curlyBrace;whiteSpace=wrap;strokeColor=#999999;rotation=90;" parent="1" vertex="1">
          <mxGeometry x="80" y="160" width="85" height="20" as="geometry" />
        </mxCell>
        <mxCell id="2gd6KIf4Ms44r0AJh0iA-1" value="Load" style="text;html=1;align=center;verticalAlign=middle;whiteSpace=wrap;rounded=0;" vertex="1" parent="1">
          <mxGeometry x="535" y="170" width="60" height="30" as="geometry" />
        </mxCell>
      </root>
    </mxGraphModel>
  </diagram>
</mxfile>
